<?xml version="1.0" encoding="UTF-8" standalone="no"?>
<svg
   xmlns:dc="http://purl.org/dc/elements/1.1/"
   xmlns:cc="http://creativecommons.org/ns#"
   xmlns:rdf="http://www.w3.org/1999/02/22-rdf-syntax-ns#"
   xmlns:svg="http://www.w3.org/2000/svg"
   xmlns="http://www.w3.org/2000/svg"
   id="svg8"
   version="1.1"
   viewBox="0 0 210 297"
   height="290mm"
   width="210mm">
  <defs
     id="defs2" />
  <metadata
     id="metadata5">
    <rdf:RDF>
      <cc:Work
         rdf:about="">
        <dc:format>image/svg+xml</dc:format>
        <dc:type
           rdf:resource="http://purl.org/dc/dcmitype/StillImage" />
        <dc:title></dc:title>
      </cc:Work>
    </rdf:RDF>
  </metadata>
  <g
     id="layer1">
    <path
       transform="scale(0.26458333)"
       id="path41"
       d="m 459.85069,389.47352 c 50.22498,-59.4491 4.4081,16.32329 6.12121,35.04977 1.71312,18.72648 4.72505,39.83385 6.69318,46.90528 9.4577,33.98127 78.12275,213.00903 71.36424,97.16314 0,0 214.80927,-61.44886 17.66641,12.83686 C -30.288939,673.06161 61.130325,1099.3729 459.85069,389.47352 Z"
       style="fill:#ff0000;fill-opacity:0;stroke-width:2.85714" />
    <path
       id="path197"
       d="m 99.131527,171.76375 c -2.29669,-0.13141 -5.292261,-0.47634 -7.054911,-0.81236 -1.048704,-0.19991 -2.292843,-0.42695 -2.764762,-0.50454 -1.52964,-0.25146 -1.976565,-0.35122 -3.622796,-0.80856 -0.891399,-0.24765 -1.921033,-0.52916 -2.288077,-0.62559 -0.991458,-0.26046 -4.832667,-1.58102 -5.05284,-1.73709 -0.104871,-0.0744 -0.920001,-0.47021 -1.811397,-0.87969 -4.263876,-1.95871 -10.406179,-5.62752 -13.84294,-8.26841 -0.325132,-0.24985 -0.966772,-0.73205 -1.425864,-1.07157 -3.547399,-2.62349 -9.168853,-7.75314 -12.098383,-11.03993 -2.516936,-2.82387 -4.439731,-5.27324 -4.882302,-6.21932 -0.230127,-0.49195 -1.208049,-1.57033 -2.719033,-2.99837 -1.297812,-1.22657 -2.691266,-2.58301 -3.096568,-3.01434 -2.548894,-2.71246 -4.759937,-4.88572 -9.340555,-9.18094 -9.698649,-9.09438 -10.711924,-10.3479 -14.749857,-18.24698 -1.324798,-2.5916 -1.425832,-2.96727 -1.425133,-5.29901 0.0012,-4.54247 1.437305,-7.210939 4.629451,-8.60306 2.315293,-1.009716 5.717949,-0.75364 12.331569,0.928056 1.153572,0.293332 3.193447,0.784824 4.533053,1.092212 l 2.435652,0.558884 0.624201,-0.559627 c 0.683025,-0.612373 0.904496,-0.665583 1.452535,-0.348992 0.286825,0.16569 0.479531,0.159225 0.90311,-0.03033 0.346732,-0.155137 1.726691,-0.289508 3.875264,-0.377341 1.835228,-0.07502 4.280613,-0.219118 5.434184,-0.320215 1.985358,-0.173984 10.31757,-0.375748 26.408246,-0.639475 3.932641,-0.06444 7.278956,-0.178431 7.43626,-0.253276 0.157302,-0.07484 0.972435,-0.136316 1.811396,-0.136614 2.099347,-6.65e-4 6.938372,-0.832493 7.416511,-1.274784 0.105246,-0.09735 0.410155,-0.177488 0.677575,-0.178086 0.267419,-5.31e-4 0.731971,-0.119653 1.032357,-0.264564 0.300374,-0.14491 0.680794,-0.263475 0.845334,-0.263475 0.16454,0 0.77682,-0.150983 1.36059,-0.335519 0.58377,-0.184536 1.83361,-0.513007 2.77746,-0.729921 0.94383,-0.216921 1.947753,-0.502463 2.230943,-0.634538 0.79441,-0.370513 2.35096,-0.286298 4.14526,0.224273 0.89764,0.255426 2.42547,0.691957 3.39518,0.970057 0.9697,0.27811 1.89326,0.505648 2.05232,0.505648 0.15907,0 0.4382,0.07562 0.62032,0.168045 0.4282,0.217339 2.4535,0.831099 3.19118,0.967085 0.31461,0.058 0.78652,0.14858 1.0487,0.201299 0.26218,0.05269 0.8199,0.137113 1.23938,0.187535 0.41948,0.05044 0.97942,0.166944 1.2443,0.258936 0.26488,0.09199 1.29451,0.20487 2.28808,0.250834 0.99356,0.04599 2.87902,0.149184 4.18989,0.229377 1.31088,0.0802 8.13222,0.161176 15.15852,0.179957 12.07431,0.03225 17.01421,0.164434 20.97407,0.561147 2.78447,0.278957 4.56126,0.54668 4.79319,0.722223 0.11937,0.09035 0.55742,0.113926 0.97343,0.05236 0.91651,-0.135566 3.71385,0.597514 4.52096,1.184776 0.72411,0.526877 2.09341,0.616938 3.77906,0.24855 12.49408,-2.730481 13.67336,-2.896826 16.21578,-2.287427 2.04354,0.489828 3.79225,1.715488 4.78006,3.350332 0.52777,0.873472 1.07105,3.392028 1.07049,4.962638 -5.8e-4,1.54454 -0.59189,3.10564 -2.09015,5.51788 -0.39165,0.63054 -1.07743,1.78138 -1.52396,2.55743 -1.8883,3.28172 -5.6366,7.08944 -12.68885,12.88997 -1.99253,1.63888 -5.03854,4.27992 -6.76889,5.86898 -1.73036,1.58907 -4.25372,3.85196 -5.60746,5.02865 -2.33549,2.03004 -3.64902,3.41948 -5.34193,5.65068 -0.43228,0.56971 -0.89192,0.98632 -1.08823,0.98632 -0.18694,0 -0.5795,0.28675 -0.87237,0.63725 -1.75839,2.10439 -3.82905,4.50922 -4.54037,5.27314 -0.45259,0.48604 -1.02207,1.121 -1.26552,1.41098 -0.8522,1.01512 -7.3296,6.92199 -9.3131,8.49279 -3.53453,2.79914 -9.35835,6.65373 -12.7751,8.45543 -2.25024,1.18659 -6.61046,3.19382 -8.19896,3.77441 -3.75662,1.37302 -9.93748,2.73636 -15.15852,3.34358 -1.67472,0.19478 -8.58582,0.36096 -10.487033,0.25217 z M 39.631259,125.34931 c 0.0012,-0.65297 -0.195267,-2.33805 -0.435977,-3.74464 -0.240716,-1.40658 -0.513501,-3.23207 -0.606189,-4.05661 -0.09269,-0.82455 -0.302633,-2.68972 -0.466549,-4.1448 -0.37338,-3.31454 -0.863391,-9.67577 -0.864018,-11.21653 -3.83e-4,-0.92601 -0.07575,-1.22621 -0.369608,-1.4722 -0.342735,-0.28691 -2.948983,-1.02391 -5.637075,-1.594058 -0.629223,-0.133455 -1.916269,-0.436527 -2.860103,-0.67349 -4.470758,-1.122447 -5.509677,-1.336905 -7.489699,-1.546029 -2.690401,-0.28416 -3.462704,-0.121338 -3.952403,0.833236 -0.256015,0.499058 -0.308971,0.943206 -0.23641,1.982975 0.249561,3.576316 3.361439,8.320466 9.095927,13.867016 1.105816,1.06958 2.607166,2.5379 3.336343,3.26294 0.72918,0.72503 2.844286,2.78657 4.700246,4.58118 1.855966,1.79461 3.831473,3.75683 4.39003,4.36051 0.671499,0.72574 1.079629,1.03832 1.204677,0.92265 0.104021,-0.0962 0.189884,-0.70919 0.190808,-1.36215 z M 179.31413,116.6641 c 2.14738,-1.89275 4.49595,-3.95634 5.21907,-4.58574 3.61195,-3.14383 6.83563,-7.0941 7.92852,-9.71554 0.52384,-1.2565 0.60384,-1.6491 0.54209,-2.660043 -0.0582,-0.951831 -0.16258,-1.274727 -0.52899,-1.635504 -0.42251,-0.416012 -0.58217,-0.449525 -2.14142,-0.449525 -1.87986,0 -4.50066,0.347014 -6.64671,0.880076 -0.78188,0.194212 -2.75157,0.627874 -4.37704,0.963695 -1.6255,0.335812 -3.77057,0.810851 -4.76684,1.055651 -0.99627,0.2448 -1.87574,0.44657 -1.9544,0.44839 -0.0786,0.002 -0.14415,0.61841 -0.14557,1.37021 -0.007,3.4498 -1.19171,14.00593 -2.09422,18.65159 -0.43554,2.24199 -0.45266,2.53886 -0.18407,3.19232 l 0.19791,0.48148 2.52368,-2.27783 c 1.38802,-1.25282 4.28062,-3.82646 6.42799,-5.71923 z"
       style="fill:#f2f2f2;fill-opacity:1;stroke-width:0.183385" />
  </g>
</svg>
